<?xml version="1.0" encoding="utf-8"?>
<!-- Generator: Adobe Illustrator 27.5.0, SVG Export Plug-In . SVG Version: 6.00 Build 0)  -->
<svg version="1.1" xmlns="http://www.w3.org/2000/svg" xmlns:xlink="http://www.w3.org/1999/xlink" x="0px" y="0px"
	 viewBox="0 0 500 500" style="enable-background:new 0 0 500 500;" xml:space="preserve">
<g id="BACKGROUND">
	<g>
		<path style="fill:#D8CBBF;" d="M198.524,373.113c-1.469,6.172-5.746,9.586-10.988,11.827c-6.427,2.749-12.787,2.512-18.676-1.676
			c-0.803-0.571-1.566-0.567-2.434-0.311c-5.439,1.606-10.406,0.298-15.114-2.5c-5.066-3.011-6.424-6.788-4.377-12.348
			c-1.856,0.268-3.654,0.481-5.436,0.792c-10.201,1.784-19.466-1.042-28.345-5.741c-1.773-0.938-3.215-2.336-4.736-3.625
			c-6.275-5.319-13.213-5.983-20.635-2.791c-3.162,1.36-6.188,3.003-9.151,4.754c-1.351,0.798-2.783,1.368-4.301,1.747
			c-1.132,0.282-1.681-0.151-1.595-1.298c0.193-2.591,1.724-4.578,3.479-6.175c2.673-2.432,4.747-5.193,6.529-8.319
			c2.18-3.825,5.706-5.765,10.135-5.86c3.878-0.082,7.61,0.438,10.876,2.836c0.851,0.624,1.916,0.957,2.885,1.419
			c1.489,0.71,2.748,0.463,3.948-0.721c1.242-1.225,1.251-2.563,0.615-3.985c-0.392-0.876-0.942-1.686-1.464-2.499
			c-3.83-5.962-2.696-11.981,3.141-16.038c3.546-2.465,7.483-3.968,11.84-4.236c0.252-0.016,0.503-0.069,0.892-0.125
			c-0.698-1.555-1.602-2.901-1.803-4.527c-0.486-3.935,1.5-7.742,5.482-9.033c3.409-1.105,6.244-2.741,8.859-5.167
			c2.859-2.652,6.707-2.934,10.408-3.35c9.407-1.057,18.414,0.56,27.1,4.15c3.042,1.257,5.819,3.038,8.515,4.906
			c2.397,1.661,4.817,2.267,7.737,1.451c2.156-0.603,4.481-0.667,6.646,0.326c0.964,0.442,1.692,1.078,1.574,2.414
			c-2.474-1.32-4.992-1.025-7.206-0.09c-4.107,1.735-7.478,0.726-10.768-1.839c-5.974-4.658-12.956-6.432-20.357-7.253
			c-5.585-0.62-11.061-0.313-16.545,0.667c-2.324,0.415-4.427,1.349-6.192,2.92c-1.895,1.686-4.046,2.755-6.536,3.278
			c-2.622,0.551-4.917,1.89-5.373,4.68c-0.48,2.93,1.115,5.182,3.608,6.682c4.131,2.486,8.538,4.173,13.389,4.689
			c4.987,0.53,9.967,1.096,14.945,0.112c4.047-0.8,6.103-3.518,5.475-7.008c-0.392-2.178-3.466-4.699-6.239-5.248
			c-2.509-0.497-4.931-0.234-7.261,0.71c-1.422,0.576-2.83,0.967-4.374,0.908c-0.519-0.02-1.062,0.132-1.567,0.29
			c-1.521,0.477-1.778,1.649-0.607,2.764c0.888,0.845,2.027,1.205,3.186,1.437c1.628,0.326,3.264,0.637,4.935,0.662
			c0.427,0.007,0.887-0.047,1.052,0.507c-0.137,0.345-0.409,0.445-0.766,0.456c-2.426,0.075-4.84,0.016-7.196-0.658
			c-0.994-0.284-1.897-0.731-2.617-1.508c-1.781-1.919-1.228-4.808,1.298-5.139c3.605-0.472,6.882-2.061,10.4-2.584
			c3.363-0.499,6.753-0.325,9.708,1.921c5.216,3.963,4.723,11.269-1.027,14.444c-2.582,1.426-5.428,1.79-8.27,1.792
			c-6.739,0.006-13.429-0.541-19.863-2.781c-1.113-0.387-2.299-0.733-3.246-1.392c-2.51-1.749-5.157-1.52-7.893-0.896
			c-3.454,0.787-6.63,2.168-9.38,4.432c-3.432,2.827-4.477,6.616-3.121,10.866c0.566,1.775,1.483,3.449,1.449,5.408
			c-0.055,3.256-3.159,5.811-6.354,5.117c-1.63-0.354-3.185-0.94-4.7-1.65c-4.983-2.335-11.255-1.46-15.084,2.493
			c-2.786,2.876-5.674,5.553-8.941,7.867c-1.846,1.307-3.083,3.205-4.344,5.471c2.145-0.356,3.607-1.299,5.065-2.254
			c4.095-2.681,8.16-5.431,12.936-6.803c7.132-2.049,13.568-0.81,19.314,4.01c6.537,5.482,13.988,8.857,22.558,9.766
			c6.734,0.714,13.149-0.807,19.544-2.438c3.706-0.945,7.514-1.241,11.213-2.145c1.879-0.459,3.734-1.017,5.461-1.902
			c3.68-1.887,5.428-5.104,5.353-9.06c-0.061-3.192-1.625-6.021-4.429-7.663c-5.946-3.481-12.054-6.67-19.151-7.102
			c-5.641-0.343-10.858,1.249-15.791,3.763c-2.336,1.19-2.618,5.527-0.613,7.929c2.339,2.801,5.399,4.459,9.061,4.639
			c4.399,0.217,8.829,0.391,13.055-1.282c1.291-0.511,2.869-0.885,2.851-2.635c-0.018-1.772-1.626-2.131-2.937-2.518
			c-2.491-0.736-5.076-0.856-7.659-0.793c-0.753,0.018-1.481,0.156-2.05-0.477c0.153-0.723,0.771-0.856,1.237-0.919
			c3.488-0.469,6.962-0.576,10.308,0.816c1.69,0.703,3.029,1.668,2.92,3.775c-0.107,2.074-1.353,3.166-3.181,3.784
			c-6.904,2.334-13.856,2.988-20.786,0.233c-4.24-1.685-6.835-4.766-7.069-9.501c-0.157-3.176,1.188-5.525,4.053-6.922
			c9.343-4.555,18.789-5.467,28.377-0.726c2.31,1.142,4.623,2.278,6.952,3.38c3.311,1.566,5.669,4.03,7.108,7.387
			c0.121,0.282,0.122,0.65,0.605,0.725c0.068-1.654,0.093-3.301,0.617-4.895c1.108-3.367,3.373-5.693,6.44-7.318
			c7.885-4.178,16.033-4.187,24.389-1.637c6.477,1.976,11.589,5.835,15.636,11.146c4.636,6.084,2.911,13.885-3.821,17.563
			c-0.937,0.512-1.432,1.225-1.697,2.206c-1.741,6.457-6.315,10.028-13.015,10.285C203.836,374.461,201.142,374.246,198.524,373.113
			z M192.662,362.741c2.611,1.514,4.429,3.31,5.031,5.889c0.431,1.846,1.537,2.287,3.145,2.537c2.5,0.388,4.923-0.187,7.378-0.35
			c4.424-0.293,7.596-2.895,8.775-7.185c0.473-1.722,1.323-3.046,3.011-3.95c4.969-2.662,6.249-8.58,2.858-13.084
			c-3.401-4.518-7.612-8.075-13.033-9.919c-7.547-2.568-15.091-3.309-22.526,0.504c-5.445,2.793-7.301,6.381-5.868,12.259
			c1.195,4.901,3.512,9.026,8.903,10.468c1.732,0.463,3.458,0.274,4.744-0.809c3.108-2.616,5.569-5.808,7.407-9.456
			c0.373-0.74,0.399-1.444-0.172-2.096c-0.563-0.642-1.244-0.696-2.056-0.516c-1.596,0.354-3.029,1.07-4.45,1.828
			c-0.543,0.29-1.079,0.981-1.703,0.36c-0.606-0.604-0.176-1.317,0.158-1.93c1.139-2.088,2.989-3.368,5.108-4.257
			c3.197-1.341,6.692,0.271,7.852,3.538c1.038,2.922-0.414,5.084-2.172,7.156c-1.758,2.071-4.054,3.51-6.082,5.256
			C197.157,360.543,195.523,362.214,192.662,362.741z M178.831,351.998c-0.355,2.123-1.17,4.023-2.209,5.85
			c-2.628,4.619-7.182,5.857-11.89,6.788c-3.577,0.707-7.275,0.637-10.813,1.647c-4.108,1.173-5.602,6.326-2.367,9.046
			c3.903,3.282,8.353,5.444,13.754,4.644c1.793-0.266,3.636-0.443,5.296,0.731c7.026,4.969,16.99,3.088,22.696-3.547
			c1.131-1.315,2.045-2.745,2.061-4.605c0.037-4.227-2.258-7.29-6.733-8.502c-4.721-1.278-9.269-0.349-13.651,1.564
			c-1.431,0.625-3.185,1.368-3.168,3.088c0.018,1.808,1.84,2.454,3.329,3.118c4.287,1.914,8.408,0.836,12.52-0.648
			c0.547-0.197,1.262-0.829,1.701,0.008c0.455,0.87-0.245,1.403-0.931,1.778c-1.562,0.854-3.237,1.448-4.933,1.959
			c-3.836,1.156-7.57,0.657-11.14-0.996c-2.036-0.943-3.674-2.444-3.782-4.847c-0.105-2.327,1.354-3.878,3.204-5.076
			c1.834-1.189,3.919-1.711,6.002-2.242c2.331-0.594,4.736-0.652,7.525-0.849C181.876,358.547,180.29,355.367,178.831,351.998z"/>
		<path style="fill:#D8CBBF;" d="M370.701,185.955c2.412,2.143,2.731,2.858,3.258,7.247c0.283,0.141,0.521,0.028,0.74-0.144
			c8.894-6.969,26.101-2.952,28.609,11.362c0.66,3.764-0.066,6.87-2.924,9.316c-5.662,4.848-12.056,7.507-19.718,6.468
			c-3.094-0.419-6.151-1.001-9.22-1.538c-2.407-0.421-4.662-0.186-6.843,1.079c-4.786,2.775-9.825,4.844-15.471,5.009
			c-2.452,0.072-4.848-0.138-7.039-1.358c-0.556-0.309-1.053-0.736-1.543-1.148c-0.411-0.346-0.517-0.836-0.308-1.32
			c0.24-0.557,0.793-0.567,1.259-0.455c7.452,1.789,13.835-1.027,19.995-4.679c2.997-1.777,6.116-2.64,9.553-1.772
			c1.609,0.407,3.179,0.969,4.76,1.48c3.323,1.072,6.642,2.343,10.198,2.011c5.17-0.482,9.576-2.691,13.111-6.516
			c1.595-1.726,1.712-3.746,1.273-6.022c-1.3-6.729-6.421-9.999-10.159-10.683c-4.406-0.807-8.575,0.046-12.413,2.304
			c-1.274,0.749-2.503,1.127-3.971,0.93c-1.763-0.237-3.411,0.332-4.998,1.011c-2.819,1.206-3.114,3.67-0.525,5.39
			c3.647,2.423,7.63,3.895,12.129,3.657c1.903-0.101,3.725-0.462,5.501-1.109c0.844-0.308,1.609-0.819,1.709-1.763
			c0.098-0.918-0.657-1.393-1.352-1.841c-1.239-0.798-2.576-1.323-4.041-1.507c-0.848-0.106-1.698-0.211-2.203-1.006
			c0.083-0.17,0.102-0.304,0.177-0.352c2.461-1.57,8.519,0.432,9.538,3.146c0.8,2.132-0.407,4.395-2.928,5.305
			c-5.214,1.88-10.429,1.749-15.613-0.15c-1.766-0.647-3.517-1.33-5.118-2.346c-3.499-2.22-4.874-7.899,0.329-10.617
			c1.224-0.639,2.536-1.113,3.807-1.662c-0.326-2.641-1.598-4.171-4.18-4.582c-1.845-0.294-3.267-0.97-4.513-2.441
			c-1.527-1.803-3.759-2.23-6.044-2.036c-2.974,0.252-5.792,1.123-8.441,2.489c-0.836,0.431-1.807,0.781-2.081,1.866
			c-0.118,0.469-0.36,0.797-0.893,0.726c-0.631-0.085-0.922-0.542-0.996-1.108c-0.185-1.418,0.728-2.32,1.642-3.155
			c2.12-1.94,4.724-2.978,7.457-3.641c4.417-1.071,8.636-1,12.254,2.363c1.171,1.089,3.796,0.618,4.72-0.7
			c0.368-0.524,0.643-1.117,0.925-1.696c1.385-2.845,2.458-3.474,5.637-3.04c3.778,0.515,7.563,1.017,11.311,1.712
			c4.56,0.845,9.112,0.702,13.665,0.184c5.923-0.674,11.833-1.456,17.746-2.222c1.6-0.207,3.168-0.597,4.65-1.256
			c0.722-0.321,1.512-0.597,1.791-1.595c-1.325-0.829-2.766-0.756-4.19-0.554c-2.871,0.407-5.734,0.872-8.598,1.334
			c-4.93,0.795-8.565-1.312-10.25-5.998c-0.998-2.776-1.621-5.666-2.64-8.443c-2.938-8.001-8.626-12.656-16.969-14.054
			c-3.438-0.576-6.751,0.082-9.816,1.765c-1.722,0.946-2.854,2.432-3.481,4.284c-0.508,1.501-1.47,2.264-3.101,2.32
			c-1.389,0.047-2.747,0.334-4.099,0.758c-4.694,1.473-4.303,6.266-1.972,8.618c2.555,2.578,5.776,3.674,9.288,3.956
			c3.481,0.279,6.855-0.267,10.059-1.727c0.993-0.453,1.881-1.043,2.623-1.838c2.307-2.47,1.417-5.926-1.847-6.961
			c-1.115-0.353-2.311-0.455-3.473-0.653c-0.405-0.069-0.76-0.183-0.753-0.661c0.005-0.373,0.28-0.553,0.629-0.613
			c5.063-0.863,8.98-0.285,10.557,5.57c0.396,1.469-0.062,2.767-0.768,3.998c-1.34,2.339-3.348,3.877-5.869,4.798
			c-6.405,2.339-12.802,2.674-19.144-0.163c-2.872-1.285-5.285-3.135-6.436-6.225c-2.098-5.637,0.845-10.783,6.756-11.861
			c1.435-0.262,2.876-0.394,4.355-0.307c0.106-0.134,0.243-0.237,0.284-0.37c1.263-4.133,4.299-6.357,8.276-7.336
			c1.57-0.387,2.922-1.15,4.357-1.759c1.718-0.729,2.524-2.235,2.225-3.717c-0.337-1.666-1.332-2.537-3.089-2.761
			c-2.122-0.271-2.701-1.248-2.459-3.326c0.298-2.564-0.738-4.793-2.214-6.727c-3.763-4.93-8.929-7.96-14.781-9.534
			c-3.947-1.061-7.713,0.332-10.68,3.154c-1.405,1.337-2.824,1.876-4.716,1.959c-4.373,0.191-7.816,2.298-10.232,5.883
			c-2.417,3.588-1.44,8.244,2.103,11.459c2.909,2.639,6.463,3.756,10.189,4.484c5.492,1.072,10.968,1.475,16.383-0.472
			c1.922-0.691,3.536-1.801,4.898-3.299c1.589-1.748,1.787-3.163,0.706-5.296c-1.564-3.086-4.279-4.595-7.512-5.287
			c-3.691-0.791-7.265-0.311-10.702,1.231c-0.245,0.11-0.507,0.198-0.727,0.347c-1.086,0.732-2.39,1.64-2.235,2.921
			c0.14,1.154,1.754,1.266,2.807,1.511c2.855,0.665,5.746,0.704,8.617,0.01c0.346-0.083,0.672-0.41,0.997,0.046
			c0.087,0.712-0.57,0.747-0.947,0.874c-3.694,1.244-7.451,1.564-11.228,0.439c-2.834-0.845-3.405-2.85-1.761-5.348
			c1.72-2.614,4.393-3.29,7.18-3.792c4.17-0.752,8.309-1.008,12.368,0.65c2.667,1.089,4.645,2.905,5.934,5.44
			c1.502,2.955,1.063,5.706-1.054,8.239c-2.869,3.434-6.751,4.84-10.989,5.482c-5.847,0.885-11.567,0.071-17.243-1.372
			c-2.665-0.678-4.953,0.313-6.968,2.008c-0.539,0.453-0.766,1.113-0.834,1.857c-0.207,2.256-0.815,2.893-3.081,3.133
			c-2.137,0.227-4.282,0.358-6.309,1.168c-0.851,0.34-1.689,0.695-2.431,1.247c-1.105,0.822-2.013,1.691-0.794,3.064
			c-0.623,0.757-1.305,0.71-1.933,0.299c-0.743-0.486-0.996-1.239-0.8-2.118c0.49-2.196,1.799-3.733,3.775-4.763
			c2.477-1.29,5.156-1.762,7.996-1.975c0.055-3.565,2.262-5.378,5.46-6.468c-0.796-0.638-1.484-1.138-2.114-1.703
			c-6.866-6.152-6.405-14.986,1.08-20.372c2.811-2.023,5.932-3.257,9.438-3.294c0.885-0.009,1.48-0.326,2.085-0.96
			c4.01-4.203,10.993-5.719,16.366-3.449c5.329,2.252,10.442,4.882,14.19,9.517c2.001,2.474,3.368,5.231,3.693,8.43
			c0.056,0.55,0.249,0.83,0.741,1.085c4.871,2.532,5.689,6.956,1.976,11.13c1.429,0.383,2.808,0.738,4.178,1.123
			c8.496,2.389,13.839,8.112,16.986,16.127c0.901,2.296,1.677,4.641,2.591,6.932c1.159,2.904,2.298,3.695,5.368,3.608
			c2.312-0.066,4.621-0.293,6.927-0.497c2.117-0.187,4.2,0.004,6.24,0.534c1.392,0.362,2.666,0.984,2.888,2.653
			c0.232,1.747-0.708,2.89-2.111,3.668c-2.581,1.431-5.449,1.933-8.32,2.37c-5.517,0.84-11.043,1.624-16.558,2.477
			c-5.526,0.855-11.034,0.706-16.561-0.021c-2.932-0.385-5.895-0.525-8.842-0.801c-0.673-0.063-1.134,0.196-1.515,0.709
			C372.59,184.344,371.713,185.213,370.701,185.955z"/>
	</g>
</g>
<g id="OBJECTS">
	<g>
		<g>
			<path style="fill:#DB6D39;" d="M138.149,433.614c-3.09-8.725-1.252-17.981-3.156-26.765c0.384,2.008,0.225,4.046,0.019,6.031
				c-0.48,4.611-0.702,9.221-0.592,13.855c0.05,2.105,0.342,4.161,0.844,6.197c0.112,0.453,0.42,0.953-0.299,1.187
				c-0.78,0.254-0.968-0.371-1.076-0.86c-0.381-1.725-0.89-3.455-0.984-5.203c-0.271-5.054-0.137-10.105,0.459-15.146
				c0.203-1.715,0.486-3.489-0.105-5.229c-2.103,8.745-4.417,17.466-1.686,26.563c-1.182,0.18-1.182-0.59-1.316-1.15
				c-1.466-6.112-1.489-12.207,0.145-18.305c0.584-2.18,1.36-4.333,1.328-6.66c-2.553,3.806-3.217,8.207-3.673,12.593
				c-0.465,4.473-0.43,8.986,0.306,13.446c-1.053,0.167-1.254-0.405-1.311-1.022c-0.256-2.779-0.77-5.552-0.629-8.347
				c0.222-4.392,0.389-8.801,1.866-13.025c0.444-1.27,1.022-2.469,1.653-3.695c-0.663-1.013-1.131-0.547-1.656,0.144
				c-2.354,3.097-3.547,6.685-4.508,10.389c-0.981,3.784-1.129,7.629-1.002,11.504c0.033,1.018,0.005,2.039,0.005,3.134
				c-0.896,0.122-1.188-0.324-1.226-1.067c-0.395-7.769,0.272-15.346,4.139-22.318c0.543-0.979,1.223-1.895,1.933-2.764
				c0.434-0.531,0.657-0.953,0.042-1.602c-1.196,0.376-2.005,1.314-2.808,2.21c-3.497,3.901-5.043,8.65-5.94,13.694
				c-0.604,3.395-0.696,6.818-0.645,10.26c-0.833,0.056-1.242-0.235-1.26-0.984c-0.175-7.21,0.217-14.307,4.098-20.714
				c1.589-2.623,3.7-4.693,6.586-6.039c-0.97-0.261-0.97-0.259-1.646-0.026c-3.822,1.317-6.194,4.176-7.892,7.643
				c-1.957,3.995-2.99,8.247-3.128,12.711c-0.055,1.774-0.212,3.545-0.328,5.41c-0.925-0.253-1.35-0.723-1.371-1.68
				c-0.113-5.261,0.426-10.412,2.513-15.303c1.666-3.904,4.059-7.216,7.923-9.234c1.24-0.647,2.562-1.051,3.997-1.027
				c1.216,0.02,2.709-1.587,2.659-2.811c-0.242-5.873,2.236-10.716,5.664-15.239c2.475-3.266,5.181-6.332,7.819-9.461
				c5.428-6.44,9.435-13.686,11.958-21.745c3.664-11.708-0.278-29.648-16.715-36.877c-3.045-1.339-6.019-2.838-9.041-4.23
				c-9.386-4.323-14.984-11.764-18.328-21.378c-6.432-18.493-0.541-42.976,16.844-57.138c7.214-5.877,15.153-10.602,22.961-15.567
				c8.654-5.503,16.751-11.743,24.068-18.957c1.921-1.894,3.701-3.917,5.254-6.124c0.957-1.359,1.92-2.727,2.151-4.454
				c0.054-0.401,0.178-0.908,0.766-0.861c0.417,0.033,0.624,0.342,0.76,0.732c0.31,0.887,0.375,1.753,0.144,2.687
				c-0.823,3.319-2.553,6.164-4.717,8.722c-8.159,9.646-18.113,17.147-28.791,23.742c-6.775,4.185-13.605,8.259-19.786,13.342
				c-10.376,8.531-16.066,19.5-17.737,32.745c-1.049,8.317,0.148,16.258,3.226,24.001c2.726,6.857,7.309,11.965,13.945,15.204
				c4.005,1.955,8.065,3.798,12.036,5.82c10.807,5.503,16.676,14.479,18.444,26.349c1.194,8.018-1.037,15.292-4.482,22.378
				c-3.5,7.2-8.358,13.384-13.781,19.201c-1.829,1.962-3.358,4.203-5.014,6.325c-2.721,3.487-3.789,7.534-4.01,11.867
				c-0.005,0.106-0.105,0.257-0.064,0.307c1.172,1.419,1.461,2.978,1.467,4.84c0.002,0.652,1.307,1.782,1.521,2.951
				c0.173,0.948,0.291,1.914,0.325,2.877c0.173,4.89,0.384,9.774,1.003,14.634c0.251,1.97,0.58,3.926,1.137,5.822
				C139.824,433.374,139.425,433.716,138.149,433.614z M131.647,405.986c0.978-0.138,1.805-0.562,1.843-1.758
				c0.034-1.065-0.646-1.557-1.629-1.586c-1.165-0.034-1.812,0.664-1.915,1.755C129.841,405.496,130.6,405.879,131.647,405.986z"/>
			<path style="fill:#DB6D39;" d="M357.564,255.524c-1.017,3.588-1.675,6.987-1.378,10.406c0.873,10.039,3.578,19.344,11.564,26.269
				c2.658,2.305,5.795,3.906,8.833,5.627c7.536,4.269,11.306,11.096,13.153,19.216c1.498,6.586,1.49,13.147-1.104,19.487
				c-2.706,6.616-7.965,10.826-13.976,14.236c-6.229,3.533-13.138,5.219-19.926,7.222c-6.331,1.867-12.871,2.91-19.187,4.839
				c-2.824,0.862-5.594,1.871-8.294,3.069c-8.688,3.857-13.399,10.877-15.355,19.851c-1.333,6.115-2.026,12.334-0.059,18.503
				c1.526,4.789,3.831,9.099,7.681,12.469c0.647,0.566,1.271,0.891,2.162,0.789c1.699-0.196,2.909,0.579,3.644,2.093
				c0.188,0.387,0.254,0.778,0.826,0.83c5.341,0.488,9.412,3.442,13.093,6.988c3.277,3.158,5.718,6.967,7.822,10.99
				c0.365,0.697,0.559,1.311-0.472,1.669c-2.498-4.336-5.138-8.576-8.827-12.046c-2.821-2.654-6.017-4.668-9.741-5.802
				c-1.256-0.383-1.456-0.371-2.464,0.237c1.101,0.469,2.138,0.832,3.103,1.335c6.385,3.329,11.143,8.346,14.85,14.433
				c0.502,0.824,0.926,1.694,1.421,2.522c0.401,0.67,0.118,0.99-0.64,1.219c-4.37-7.508-9.912-13.897-18.04-17.623
				c6.986,4.825,12.199,11.263,16.873,18.258c-0.694,0.717-1.083,0.759-1.668-0.048c-3.705-5.111-7.667-10.005-12.584-14.03
				c-1.33-1.089-2.737-2.084-4.091-3.145c-0.511-0.4-0.98-0.711-1.659,0.111c4.421,7.001,10.972,12.228,16.361,18.591
				c-0.748,0.359-1.301,0.535-1.855-0.049c-4.554-4.8-9.718-9.029-13.562-14.496c-0.777-1.105-1.399-2.289-1.876-3.547
				c-0.121-0.318-0.301-0.406-0.916-0.305c3.069,7.68,8.853,13.274,14.22,19.357c-0.857,0.353-1.451,0.383-2.022-0.195
				c-4.32-4.369-8.646-8.733-11.466-14.302c-0.846-1.67-1.656-3.355-1.877-5.301c-1.017,0.851-1.15,1.511-0.497,2.941
				c1.641,3.594,3.844,6.821,6.376,9.852c1.957,2.344,3.912,4.702,5.557,7.292c-0.923,0.749-1.409,0.119-1.865-0.473
				c-3.865-5.003-8.713-9.279-11.297-15.246c1.779,6.056,7.017,10.14,9.242,16.048c-0.718,0.248-1.235,0.356-1.577-0.368
				c-1.873-3.96-4.794-7.253-7.01-10.995c-0.74-1.249-1.479-2.497-1.965-3.868c-0.844-2.378-0.03-4.411,1.439-6.316
				c-0.935-1.426-0.951-2.915-0.237-4.368c-7.423-5.876-11.277-13.632-11.725-22.852c-0.539-11.114,2.398-21.181,10.442-29.369
				c3.39-3.451,7.654-5.268,12.034-6.965c6.797-2.634,13.986-3.725,21.005-5.493c8.257-2.081,16.698-3.718,24.206-8.033
				c5.868-3.372,10.75-7.769,12.053-14.767c2.014-10.816-0.318-20.507-8.412-28.376c-1.902-1.849-4.319-3.024-6.636-4.267
				c-10.182-5.463-15.139-14.393-17.072-25.391c-0.956-5.439-0.942-10.811,0.952-16.065
				C355.526,257.11,355.818,255.87,357.564,255.524z M322.948,421.598c-0.094-0.859-0.459-1.525-1.478-1.509
				c-0.974,0.016-1.512,0.615-1.507,1.532c0.005,0.923,0.398,1.721,1.49,1.74C322.58,423.381,322.858,422.57,322.948,421.598z"/>
		</g>
		<g>
			<path style="fill:#A8423D;" d="M344.078,197.407c0,0.316-0.051,0.641,0.008,0.946c0.719,3.718,0.271,7.424-0.453,11.046
				c-2.276,11.382-7.029,21.47-15.883,29.324c-0.96,0.852-1.735,1.912-2.607,2.865c-0.221,0.242-0.49,0.466-0.829,0.178
				c-0.304-0.258-0.265-0.543-0.037-0.845c0.194-0.257,0.368-0.53,0.532-0.807c2.028-3.417,3.371-7.104,4.548-11.21
				c-0.396,0.326-0.545,0.401-0.626,0.522c-3.072,4.557-6.892,8.439-11.221,11.755c-5.847,4.48-11.799,8.833-17.842,13.046
				c-13.631,9.504-23.147,22.102-28.832,37.662c-2.193,6.002-2.955,12.267-3.393,18.584c-0.135,1.94-0.021,3.897-0.021,6.178
				c4.772-8.15,9.467-13.422,15.842-18.02c9.837-7.096,21.09-10.817,32.666-13.786c0.393-0.101,0.749-0.285,0.94,0.194
				c0.212,0.531-0.116,0.785-0.595,0.922c-0.308,0.088-0.608,0.207-0.91,0.318c-6.408,2.354-12.006,5.965-16.716,10.904
				c-1.872,1.963-3.652,5.094-3.886,6.567c3.262-3.751,7.409-6.03,11.582-8.278c3.833-2.065,7.972-3.435,11.892-5.307
				c5.342-2.55,10.272-5.626,13.991-10.347c0.973-1.235,1.873-2.528,2.844-3.845c0.323,0.491,0.281,0.836,0.153,1.205
				c-1.164,3.345-2.504,6.609-4.461,9.583c-4.863,7.39-10.832,13.858-17.482,19.592c-9.377,8.087-15.337,18.266-19.492,29.685
				c-2.016,5.54-2.796,11.392-4.054,17.122c-0.536,2.441-1.068,4.883-1.601,7.324c0.978-2.179,1.6-4.45,2.357-6.674
				c2.826-8.308,7.958-15.219,13.535-21.805c4.899-5.785,11.201-10.067,16.896-14.983c6.405-5.529,13.187-10.641,18.494-17.3
				c12.03-15.095,20.229-31.875,22.014-51.369c0.342-3.731,0.009-7.414-1.618-10.87c-0.291-0.618-0.623-1.326-1.476-1.314
				c-0.807,0.011-1.247,0.609-1.55,1.247c-0.528,1.113-0.95,2.277-1.479,3.389c-0.452,0.949-0.394,2.576-1.949,2.345
				c-1.662-0.247-1.231-1.822-1.19-2.913c0.419-10.958-1.31-21.628-4.225-32.143C346.931,204.445,345.717,200.865,344.078,197.407z"
				/>
			<path style="fill:#A8423D;" d="M169.659,241.778c-13.769-11.457-20.65-26-20.148-43.923c-4.826,12.873-8.043,25.988-7.694,39.785
				c0.037,1.458,0.067,2.905-0.177,4.35c-0.11,0.654-0.392,1.118-1.087,1.209c-0.699,0.092-1.132-0.314-1.383-0.892
				c-0.299-0.688-0.497-1.42-0.789-2.111c-0.417-0.988-0.787-2.014-1.344-2.921c-0.959-1.561-2.021-1.512-2.863,0.102
				c-0.418,0.801-0.745,1.67-0.978,2.544c-1.321,4.963-0.807,9.964,0.084,14.885c3.177,17.554,11.118,32.843,22.501,46.44
				c7.043,8.413,16.136,14.565,24.279,21.756c4.942,4.364,9.845,8.632,13.827,13.944c4.821,6.43,8.829,13.21,10.805,21.071
				c0.178,0.709,0.312,1.467,1.044,2.355c-0.724-3.392-1.398-6.452-2.027-9.521c-1.319-6.433-2.606-12.853-5.174-18.968
				c-4.12-9.814-9.71-18.517-17.872-25.496c-4.468-3.82-8.499-8.099-12.272-12.614c-4.054-4.85-7.606-9.996-9.498-16.11
				c-0.143-0.46-0.776-0.994-0.136-1.568c0.672,0.006,0.7,0.615,0.932,0.972c1.503,2.31,3.217,4.438,5.278,6.272
				c4.394,3.91,9.558,6.519,14.946,8.714c6.186,2.52,12.199,5.326,17.323,9.725c0.326,0.28,0.621,0.598,0.95,0.875
				c0.277,0.233,0.4,0.738,1.043,0.531c-1.749-3.196-3.639-6.224-6.504-8.534c-4.497-3.625-9.26-6.787-14.809-8.599
				c-0.444-0.145-1.105-0.241-0.954-0.863c0.199-0.824,0.83-0.367,1.312-0.244c6.747,1.719,13.404,3.714,19.789,6.525
				c9.721,4.28,18.029,10.419,24.623,18.795c1.451,1.843,2.508,3.932,3.589,6.084c0.585-0.602,0.402-1.228,0.375-1.775
				c-0.237-4.825-0.386-9.674-1.354-14.416c-2.813-13.792-9.571-25.553-19.065-35.765c-5.079-5.463-11.267-9.658-17.301-13.991
				c-8.823-6.335-17.992-12.271-24.273-21.516C165.743,233.42,167.63,237.63,169.659,241.778z"/>
		</g>
		<path style="fill:#F9F1E8;" d="M266.928,320.16c-0.799-0.99-0.695-2.331-0.76-3.52c-0.29-5.334,0.172-10.65,1.01-15.905
			c1.385-8.692,4.851-16.622,9.255-24.194c5.92-10.179,14.29-17.946,23.779-24.692c6.353-4.516,12.946-8.73,18.763-13.954
			c4.328-3.887,8.53-7.928,10.863-13.45c0.132-0.312,0.313-0.567,1.123-0.548c0.06,4.686-1.893,8.854-3.155,13.281
			c0.61-0.411,0.99-1.01,1.469-1.513c5.84-6.125,9.464-13.467,11.89-21.481c2.185-7.22,2.788-14.515,0.938-21.889
			c-0.689-2.745-1.925-5.351-2.213-8.204c-0.874-8.663-1.692-17.331-2.599-25.991c-0.795-7.588-1.993-15.118-3.422-22.612
			c-2.357-12.356-6.172-24.297-10.029-36.247c-3.646-11.296-7.247-22.576-12.742-33.155c-1.248-2.403-2.526-4.79-4.417-6.71
			c-3.214-3.265-5.46-3.466-8.693-0.869c-1.739,1.397-3.237,3.013-4.56,4.783c-7.271,9.735-13.277,20.214-18.231,31.298
			c-5.125,11.467-9.751,23.135-13.99,34.958c-0.972,2.711-1.594,2.941-4.456,2.725c-6.507-0.49-13.026-0.486-19.533-0.005
			c-2.894,0.214-3.47,0.026-4.452-2.687c-3.418-9.435-7.105-18.765-10.977-28.021c-5.515-13.184-12.088-25.789-20.584-37.334
			c-1.507-2.047-3.129-3.995-5.115-5.585c-3.159-2.529-5.097-2.804-8.725,0.579c-0.469,0.437-0.852,0.97-1.242,1.484
			c-3.381,4.459-5.549,9.597-7.619,14.694c-6.405,15.771-11.446,32.022-15.823,48.454c-4.746,17.816-6.417,36.134-8.152,54.425
			c-0.349,3.681-0.388,7.421-1.707,10.951c-1.932,5.172-2.533,10.481-1.883,15.971c1.066,9.007,4.141,17.265,9.149,24.796
			c1.702,2.56,3.592,5.004,6.048,6.966c-1.287-4.304-3.297-8.407-3.15-13.031c0.994-0.116,1.052,0.512,1.284,0.964
			c0.39,0.762,0.753,1.54,1.19,2.275c2.797,4.7,6.745,8.387,10.826,11.896c4.613,3.966,9.733,7.281,14.663,10.839
			c7.031,5.074,14.142,10.084,19.641,16.916c7.43,9.231,13.028,19.408,15.592,31.095c1.179,5.374,1.546,10.841,1.643,16.311
			c0.035,1.955,0.153,4.059-1.123,6.085c-2.112-5.565-5.378-10.274-9.571-14.382c-4.175-4.089-8.678-7.712-13.83-10.501
			c-5.108-2.765-10.42-5.016-16.058-6.497c3.903,2.809,7.869,5.471,10.626,9.538c3.284,4.844,5.886,11.278,5.034,13.32
			c-0.316-0.514-0.621-0.854-0.755-1.252c-1.012-2.994-2.96-5.318-5.228-7.422c-4.244-3.938-9.326-6.539-14.584-8.727
			c-7.552-3.144-14.879-6.559-20.563-12.895c0.06,0.763,0.428,1.228,0.717,1.72c3.935,6.698,9.054,12.421,14.645,17.752
			c3.274,3.122,6.712,6.084,9.834,9.35c6.384,6.677,10.573,14.672,13.563,23.362c2.897,8.421,4.647,17.134,6.719,25.765
			c0.851,3.544,1.305,7.365,3.429,10.293c3.545,4.885,7.857,9.161,13.125,12.283c4.513,2.674,9.522,3.849,14.671,4.498
			c2.739,0.345,3.995-0.46,4.92-3.078c0.161-0.455,0.322-0.925,0.373-1.4c0.33-3.051,0.39-6.088,0.183-9.172
			c-0.136-2.033-0.983-2.75-2.723-3.013c-4.488-0.678-8.316-2.785-11.875-5.482c-2.734-2.071-5.149-4.439-6.744-7.509
			c-0.898-1.73-1.011-3.599,0.303-5.155c1.333-1.579,3.179-1.316,4.939-0.808c1.366,0.394,2.491,1.247,3.61,2.093
			c4.039,3.052,8.119,6.03,12.904,7.87c1.739,0.669,3.412,0.68,5.153,0.015c4.581-1.749,8.517-4.552,12.388-7.467
			c1.421-1.07,2.82-2.18,4.569-2.665c3.522-0.976,6.141,1.312,5.394,4.706c-0.222,1.01-0.708,1.929-1.31,2.756
			c-3.785,5.204-8.72,8.869-14.831,10.904c-1.217,0.405-2.492,0.647-3.753,0.904c-1.205,0.245-1.874,0.875-1.929,2.153
			c-0.148,3.442-0.404,6.889,0.234,10.306c0.282,1.511,0.952,2.856,2.235,3.803c0.433,0.319,0.881,0.612,1.474,0.52
			c4.512-0.694,8.986-1.498,13.239-3.282c5.062-2.123,8.684-6.036,12.619-9.635c3.628-3.317,5.2-7.544,6.298-12.062
			c2.462-10.13,4.425-20.375,8.031-30.22c3.648-9.958,9.218-18.5,17.158-25.539c6.254-5.544,12.215-11.383,17.098-18.22
			c1.352-1.893,2.708-3.79,3.539-6.011c-5.33,5.697-12.024,9.133-19.105,11.998c-5.031,2.036-9.857,4.489-14.175,7.834
			c-3.112,2.411-5.656,5.27-7.001,9.047c-0.156,0.437-0.322,0.874-0.832,0.792c-0.479-0.077-0.43-0.46-0.311-0.888
			c1.901-6.869,4.928-13.057,10.678-17.576c1.801-1.415,3.69-2.719,5.647-4.153c-0.346,0-0.573-0.054-0.762,0.008
			c-10.257,3.332-19.815,7.892-27.706,15.486c-4.461,4.293-8.477,8.855-10.488,14.86C267.789,319.61,267.696,320.107,266.928,320.16
			z"/>
		<g>
			<path style="fill:#DB6D39;" d="M328.586,170.35c-0.553,0.303-0.89-0.202-1.233-0.512c-2.528-2.258-4.901-4.719-7.59-6.768
				c-9.72-7.435-20.216-13.664-31.002-19.427c-6.02-3.215-11.999-6.512-18.605-8.419c-0.735-0.216-0.95-0.721-1.058-1.429
				c-0.283-1.78,0.351-3.418,0.782-5.056c3.081-11.608,7.496-22.724,12.579-33.577c3.283-7.011,6.761-13.92,11.163-20.317
				c0.977-1.422,2.13-2.703,3.323-3.95c1.16-1.22,2.514-1.8,4.139-1.672c2.676-0.222,4.429,1.213,5.79,3.215
				c2.144,3.155,3.236,6.768,4.193,10.408c3.997,15.133,7.496,30.388,10.705,45.71c1.975,9.451,3.33,18.996,4.867,28.521
				c0.56,3.431,1.348,6.828,2.029,10.246c0.115,0.573,0.25,1.153,0.35,1.732C329.105,169.561,329.058,170.08,328.586,170.35z"/>
			<path style="fill:#DB6D39;" d="M224.944,132.654c0.027,0.101,0.047,0.209,0.088,0.425c-0.384,0.694-0.101,1.773-1.368,2.184
				c-11.46,3.681-21.605,10.024-31.912,16.003c-6.37,3.701-12.545,7.739-18.302,12.349c-2.305,1.847-4.382,3.984-6.566,5.973
				c-0.452,0.411-0.856,1.146-1.604,0.701c-0.688-0.411-0.479-1.213-0.33-1.78c1.78-6.586,2.69-13.34,3.667-20.061
				c1.544-10.563,3.681-21.005,5.999-31.413c2.083-9.309,4.348-18.578,6.586-27.854c1.153-4.793,2.312-9.592,4.355-14.122
				c0.667-1.49,1.49-2.858,2.649-4.011c2.609-2.582,6.343-2.622,8.912-0.02c2.204,2.225,4.038,4.759,5.608,7.462
				c8.858,15.248,15.794,31.325,20.796,48.231C224.102,128.671,224.479,130.673,224.944,132.654z"/>
		</g>
		<path style="fill:#6F342C;" d="M355.059,236.442c0.365-0.305,0.501-0.388,0.598-0.504c2.13-2.552,4.667-2.443,6.41,0.388
			c1.582,2.569,2.267,5.453,2.351,8.444c0.338,12.079-2.845,23.405-7.79,34.254c-4.506,9.888-10.122,19.167-17.829,26.909
			c-5.043,5.066-10.429,9.814-16.069,14.245c-4.7,3.693-9.566,7.213-13.809,11.429c-7.848,7.799-13.907,16.778-17.295,27.429
			c-3.279,10.307-9.869,18.18-18.51,24.386c-4.862,3.491-10.586,4.871-16.444,5.643c-5.619,0.741-11.272,0.794-16.903,0.301
			c-9.575-0.839-18.079-3.931-25.106-10.988c-6.083-6.109-10.251-13.086-13.037-21.193c-3.821-11.116-10.59-20.358-19.413-28.097
			c-5.994-5.258-12.372-10.047-18.502-15.143c-13.645-11.341-23.125-25.467-29.284-41.967c-2.797-7.494-4.514-15.224-4.967-23.216
			c-0.228-4.016,0.128-7.96,1.927-11.642c1.101-2.254,2.485-3.112,4.344-2.946c1.315,0.118,1.923,1.221,2.943,2.031
			c0.097-3.101-0.039-6.038,0.271-8.98c1.242-11.786,4.219-23.094,8.986-33.937c0.562-1.277,1.152-2.542,1.707-3.822
			c1.223-2.821,1.876-5.685,2.019-8.843c0.397-8.75,0.872-17.503,2.179-26.195c2.17-14.435,4.426-28.877,8.577-42.873
			c4.462-15.042,8.381-30.311,15.438-44.469c1.537-3.083,3.043-6.18,5.355-8.787c4.458-5.028,9.344-5.481,14.585-1.327
			c4.203,3.332,7.11,7.767,10.126,12.09c8.071,11.571,14.02,24.251,19.368,37.244c3.122,7.586,6.091,15.226,8.59,23.116
			c1.536,0.216,2.909-0.659,4.419-0.643c4.418,0.048,8.836,0.018,13.254,0.014c0.98-0.001,1.921,0.202,2.847,0.499
			c1.076,0.345,1.616,0.18,2.068-1.116c7.261-20.827,15.246-41.328,27.902-59.63c2.448-3.54,4.86-7.127,8.06-10.069
			c0.87-0.8,1.787-1.556,2.73-2.269c4.69-3.548,9.542-2.167,13.011,1.472c2.521,2.644,4.122,5.878,5.76,9.098
			c5.136,10.099,8.14,20.966,11.655,31.664c4.294,13.07,7.529,26.383,9.89,39.913c1.744,9.993,3.607,19.975,4.064,30.15
			c0.188,4.189,0.864,8.371,0.817,12.551c-0.034,2.971,0.65,5.628,1.862,8.197c4.583,9.713,7.95,19.817,9.722,30.409
			C354.846,225.115,355.81,230.598,355.059,236.442z M266.928,320.16c-0.799-0.99-0.695-2.331-0.76-3.52
			c-0.29-5.334,0.172-10.65,1.01-15.905c1.385-8.692,4.851-16.622,9.255-24.194c5.92-10.179,14.29-17.946,23.779-24.692
			c6.353-4.516,12.946-8.73,18.763-13.954c4.328-3.887,8.53-7.928,10.863-13.45c0.132-0.312,0.313-0.567,1.123-0.548
			c0.06,4.686-1.893,8.854-3.155,13.281c0.61-0.411,0.99-1.01,1.469-1.513c5.84-6.125,9.464-13.467,11.89-21.481
			c2.185-7.22,2.788-14.515,0.938-21.889c-0.689-2.745-1.925-5.351-2.213-8.204c-0.874-8.663-1.692-17.331-2.599-25.991
			c-0.795-7.588-1.993-15.118-3.422-22.612c-2.357-12.356-6.172-24.297-10.029-36.247c-3.646-11.296-7.247-22.576-12.742-33.155
			c-1.248-2.403-2.526-4.79-4.417-6.71c-3.214-3.265-5.46-3.466-8.693-0.869c-1.739,1.397-3.237,3.013-4.56,4.783
			c-7.271,9.735-13.277,20.214-18.231,31.298c-5.125,11.467-9.751,23.135-13.99,34.958c-0.972,2.711-1.594,2.941-4.456,2.725
			c-6.507-0.49-13.026-0.486-19.533-0.005c-2.894,0.214-3.47,0.026-4.452-2.687c-3.418-9.435-7.105-18.765-10.977-28.021
			c-5.515-13.184-12.088-25.789-20.584-37.334c-1.507-2.047-3.129-3.995-5.115-5.585c-3.159-2.529-5.097-2.804-8.725,0.579
			c-0.469,0.437-0.852,0.97-1.242,1.484c-3.381,4.459-5.549,9.597-7.619,14.694c-6.405,15.771-11.446,32.022-15.823,48.454
			c-4.746,17.816-6.417,36.134-8.152,54.425c-0.349,3.681-0.388,7.421-1.707,10.951c-1.932,5.172-2.533,10.481-1.883,15.971
			c1.066,9.007,4.141,17.265,9.149,24.796c1.702,2.56,3.592,5.004,6.048,6.966c-1.287-4.304-3.297-8.407-3.15-13.031
			c0.994-0.116,1.052,0.512,1.284,0.964c0.39,0.762,0.753,1.54,1.19,2.275c2.797,4.7,6.745,8.387,10.826,11.896
			c4.613,3.966,9.733,7.281,14.663,10.839c7.031,5.074,14.142,10.084,19.641,16.916c7.43,9.231,13.028,19.408,15.592,31.095
			c1.179,5.374,1.546,10.841,1.643,16.311c0.035,1.955,0.153,4.059-1.123,6.085c-2.112-5.565-5.378-10.274-9.571-14.382
			c-4.175-4.089-8.678-7.712-13.83-10.501c-5.108-2.765-10.42-5.016-16.058-6.497c3.903,2.809,7.869,5.471,10.626,9.538
			c3.284,4.844,5.886,11.278,5.034,13.32c-0.316-0.514-0.621-0.854-0.755-1.252c-1.012-2.994-2.96-5.318-5.228-7.422
			c-4.244-3.938-9.326-6.539-14.584-8.727c-7.552-3.144-14.879-6.559-20.563-12.895c0.06,0.763,0.428,1.228,0.717,1.72
			c3.935,6.698,9.054,12.421,14.645,17.752c3.274,3.122,6.712,6.084,9.834,9.35c6.384,6.677,10.573,14.672,13.563,23.362
			c2.897,8.421,4.647,17.134,6.719,25.765c0.851,3.544,1.305,7.365,3.429,10.293c3.545,4.885,7.857,9.161,13.125,12.283
			c4.513,2.674,9.522,3.849,14.671,4.498c2.739,0.345,3.995-0.46,4.92-3.078c0.161-0.455,0.322-0.925,0.373-1.4
			c0.33-3.051,0.39-6.088,0.183-9.172c-0.136-2.033-0.983-2.75-2.723-3.013c-4.488-0.678-8.316-2.785-11.875-5.482
			c-2.734-2.071-5.149-4.439-6.744-7.509c-0.898-1.73-1.011-3.599,0.303-5.155c1.333-1.579,3.179-1.316,4.939-0.808
			c1.366,0.394,2.491,1.247,3.61,2.093c4.039,3.052,8.119,6.03,12.904,7.87c1.739,0.669,3.412,0.68,5.153,0.015
			c4.581-1.749,8.517-4.552,12.388-7.467c1.421-1.07,2.82-2.18,4.569-2.665c3.522-0.976,6.141,1.312,5.394,4.706
			c-0.222,1.01-0.708,1.929-1.31,2.756c-3.785,5.204-8.72,8.869-14.831,10.904c-1.217,0.405-2.492,0.647-3.753,0.904
			c-1.205,0.245-1.874,0.875-1.929,2.153c-0.148,3.442-0.404,6.889,0.234,10.306c0.282,1.511,0.952,2.856,2.235,3.803
			c0.433,0.319,0.881,0.612,1.474,0.52c4.512-0.694,8.986-1.498,13.239-3.282c5.062-2.123,8.684-6.036,12.619-9.635
			c3.628-3.317,5.2-7.544,6.298-12.062c2.462-10.13,4.425-20.375,8.031-30.22c3.648-9.958,9.218-18.5,17.158-25.539
			c6.254-5.544,12.215-11.383,17.098-18.22c1.352-1.893,2.708-3.79,3.539-6.011c-5.33,5.697-12.024,9.133-19.105,11.998
			c-5.031,2.036-9.857,4.489-14.175,7.834c-3.112,2.411-5.656,5.27-7.001,9.047c-0.156,0.437-0.322,0.874-0.832,0.792
			c-0.479-0.077-0.43-0.46-0.311-0.888c1.901-6.869,4.928-13.057,10.678-17.576c1.801-1.415,3.69-2.719,5.647-4.153
			c-0.346,0-0.573-0.054-0.762,0.008c-10.257,3.332-19.815,7.892-27.706,15.486c-4.461,4.293-8.477,8.855-10.488,14.86
			C267.789,319.61,267.696,320.107,266.928,320.16z M344.078,197.407c0,0.316-0.051,0.641,0.008,0.946
			c0.719,3.718,0.271,7.424-0.453,11.046c-2.276,11.382-7.029,21.47-15.883,29.324c-0.96,0.852-1.735,1.912-2.607,2.865
			c-0.221,0.242-0.49,0.466-0.829,0.178c-0.304-0.258-0.265-0.543-0.037-0.845c0.194-0.257,0.368-0.53,0.532-0.807
			c2.028-3.417,3.371-7.104,4.548-11.21c-0.396,0.326-0.545,0.401-0.626,0.522c-3.072,4.557-6.892,8.439-11.221,11.755
			c-5.847,4.48-11.799,8.833-17.842,13.046c-13.631,9.504-23.147,22.102-28.832,37.662c-2.193,6.002-2.955,12.267-3.393,18.584
			c-0.135,1.94-0.021,3.897-0.021,6.178c4.772-8.15,9.467-13.422,15.842-18.02c9.837-7.096,21.09-10.817,32.666-13.786
			c0.393-0.101,0.749-0.285,0.94,0.194c0.212,0.531-0.116,0.785-0.595,0.922c-0.308,0.088-0.608,0.207-0.91,0.318
			c-6.408,2.354-12.006,5.965-16.716,10.904c-1.872,1.963-3.652,5.094-3.886,6.567c3.262-3.751,7.409-6.03,11.582-8.278
			c3.833-2.065,7.972-3.435,11.892-5.307c5.342-2.55,10.272-5.626,13.991-10.347c0.973-1.235,1.873-2.528,2.844-3.845
			c0.323,0.491,0.281,0.836,0.153,1.205c-1.164,3.345-2.504,6.609-4.461,9.583c-4.863,7.39-10.832,13.858-17.482,19.592
			c-9.377,8.087-15.337,18.266-19.492,29.685c-2.016,5.54-2.796,11.392-4.054,17.122c-0.536,2.441-1.068,4.883-1.601,7.324
			c0.978-2.179,1.6-4.45,2.357-6.674c2.826-8.308,7.958-15.219,13.535-21.805c4.899-5.785,11.201-10.067,16.896-14.983
			c6.405-5.529,13.187-10.641,18.494-17.3c12.03-15.095,20.229-31.875,22.014-51.369c0.342-3.731,0.009-7.414-1.618-10.87
			c-0.291-0.618-0.623-1.326-1.476-1.314c-0.807,0.011-1.247,0.609-1.55,1.247c-0.528,1.113-0.95,2.277-1.479,3.389
			c-0.452,0.949-0.394,2.576-1.949,2.345c-1.662-0.247-1.231-1.822-1.19-2.913c0.419-10.958-1.31-21.628-4.225-32.143
			C346.931,204.445,345.717,200.865,344.078,197.407z M169.659,241.778c-13.769-11.457-20.65-26-20.148-43.923
			c-4.826,12.873-8.043,25.988-7.694,39.785c0.037,1.458,0.067,2.905-0.177,4.35c-0.11,0.654-0.392,1.118-1.087,1.209
			c-0.699,0.092-1.132-0.314-1.383-0.892c-0.299-0.688-0.497-1.42-0.789-2.111c-0.417-0.988-0.787-2.014-1.344-2.921
			c-0.959-1.561-2.021-1.512-2.863,0.102c-0.418,0.801-0.745,1.67-0.978,2.544c-1.321,4.963-0.807,9.964,0.084,14.885
			c3.177,17.554,11.118,32.843,22.501,46.44c7.043,8.413,16.136,14.565,24.279,21.756c4.942,4.364,9.845,8.632,13.827,13.944
			c4.821,6.43,8.829,13.21,10.805,21.071c0.178,0.709,0.312,1.467,1.044,2.355c-0.724-3.392-1.398-6.452-2.027-9.521
			c-1.319-6.433-2.606-12.853-5.174-18.968c-4.12-9.814-9.71-18.517-17.872-25.496c-4.468-3.82-8.499-8.099-12.272-12.614
			c-4.054-4.85-7.606-9.996-9.498-16.11c-0.143-0.46-0.776-0.994-0.136-1.568c0.672,0.006,0.7,0.615,0.932,0.972
			c1.503,2.31,3.217,4.438,5.278,6.272c4.394,3.91,9.558,6.519,14.946,8.714c6.186,2.52,12.199,5.326,17.323,9.725
			c0.326,0.28,0.621,0.598,0.95,0.875c0.277,0.233,0.4,0.738,1.043,0.531c-1.749-3.196-3.639-6.224-6.504-8.534
			c-4.497-3.625-9.26-6.787-14.809-8.599c-0.444-0.145-1.105-0.241-0.954-0.863c0.199-0.824,0.83-0.367,1.312-0.244
			c6.747,1.719,13.404,3.714,19.789,6.525c9.721,4.28,18.029,10.419,24.623,18.795c1.451,1.843,2.508,3.932,3.589,6.084
			c0.585-0.602,0.402-1.228,0.375-1.775c-0.237-4.825-0.386-9.674-1.354-14.416c-2.813-13.792-9.571-25.553-19.065-35.765
			c-5.079-5.463-11.267-9.658-17.301-13.991c-8.823-6.335-17.992-12.271-24.273-21.516
			C165.743,233.42,167.63,237.63,169.659,241.778z"/>
		<g>
			<path style="fill:#6F342C;" d="M301.083,69.219c2.673-0.216,4.428,1.216,5.789,3.219c2.144,3.157,3.235,6.77,4.194,10.404
				c3.996,15.138,7.499,30.391,10.704,45.716c1.977,9.449,3.332,18.996,4.87,28.517c0.555,3.435,1.345,6.832,2.028,10.246
				c0.116,0.578,0.244,1.154,0.348,1.734c0.089,0.504,0.045,1.024-0.433,1.291c-0.553,0.309-0.887-0.197-1.233-0.507
				c-2.525-2.263-4.901-4.719-7.586-6.771c-9.725-7.433-20.22-13.661-31.003-19.423c-6.019-3.216-11.996-6.513-18.603-8.425
				c-0.734-0.212-0.951-0.72-1.062-1.43c-0.279-1.778,0.351-3.415,0.784-5.05c3.077-11.608,7.493-22.723,12.58-33.581
				c3.284-7.01,6.759-13.92,11.163-20.316c0.978-1.42,2.13-2.7,3.321-3.951C298.101,69.676,299.462,69.097,301.083,69.219z
				 M326.489,166.501c-1.119-4.612-1.696-9.243-2.48-13.835c-1.129-6.604-2.045-13.243-3.418-19.808
				c-2.45-11.708-5.195-23.349-7.963-34.982c-1.639-6.886-2.942-13.871-5.434-20.534c-0.699-1.869-1.495-3.684-2.968-5.119
				c-2.2-2.144-4.682-2.102-6.722,0.204c-1.822,2.06-3.494,4.242-4.83,6.651c-6.939,12.517-12.794,25.517-17.511,39.035
				c-1.743,4.997-3.394,10.015-4.882,15.174c0.39,0.135,0.678,0.261,0.979,0.335c3.135,0.774,6.215,1.726,9.113,3.157
				c13.486,6.66,26.214,14.578,38.491,23.243C321.592,161.948,323.967,164.28,326.489,166.501z"/>
			<path style="fill:#6F342C;" d="M225.032,133.081c-0.387,0.695-0.102,1.772-1.365,2.178
				c-11.461,3.685-21.604,10.025-31.912,16.008c-6.373,3.699-12.544,7.737-18.303,12.349c-2.305,1.846-4.38,3.98-6.568,5.973
				c-0.451,0.411-0.852,1.143-1.6,0.698c-0.687-0.408-0.482-1.213-0.33-1.777c1.776-6.589,2.687-13.341,3.667-20.066
				c1.539-10.562,3.676-21.003,5.999-31.407c2.078-9.311,4.346-18.58,6.581-27.855c1.156-4.796,2.317-9.597,4.357-14.126
				c0.669-1.486,1.488-2.857,2.653-4.01c2.604-2.579,6.343-2.617,8.909-0.021c2.204,2.23,4.034,4.763,5.605,7.468
				c8.857,15.246,15.798,31.324,20.801,48.231c0.576,1.946,0.954,3.951,1.423,5.928
				C224.972,132.757,224.989,132.863,225.032,133.081z M223.642,133.098c-1.011-3.206-2.001-6.487-3.08-9.739
				c-4.624-13.93-10.275-27.423-17.178-40.389c-2.079-3.905-4.271-7.717-7.37-10.915c-1.719-1.774-3.823-1.868-5.773-0.331
				c-1.713,1.349-2.593,3.253-3.365,5.216c-1.813,4.612-2.776,9.459-3.969,14.245c-6.223,24.974-11.711,50.098-15.296,75.529
				c3.638-4.232,8.368-7.496,13.188-10.634C194.385,147.236,207.804,138.073,223.642,133.098z"/>
		</g>
		<g>
			<path style="fill:#EFC5B4;" d="M319.488,204.483c1.777,2.87,2.41,5.996,2.571,9.211c0.383,7.611-2.176,14.127-7.177,19.865
				c-5.586,6.408-12.262,11.262-19.982,14.691c-3.786,1.681-7.838,2.543-11.951,1.68c-5.782-1.214-8.929-5.079-10.173-10.767
				c-2.285-10.447,4.14-21.134,14.452-23.873c5.272-1.4,10.088-0.175,14.669,2.483c1.673,0.971,3.367,1.904,5.031,2.889
				c3.625,2.144,6.872,0.983,8.99-2.314c2.335-3.633,3.867-7.52,3.575-11.949C319.451,205.762,319.488,205.121,319.488,204.483z
				 M293.276,223.845c-0.829-0.054-1.895,0.061-2.831,0.678c-4.446,2.937-8.117,9.507-7.369,14.879
				c0.49,3.521,3.589,6.075,7.489,3.469c4.624-3.091,7.348-7.499,8.168-12.969C299.256,226.406,296.918,223.844,293.276,223.845z"/>
			<path style="fill:#EFC5B4;" d="M174.337,204.451c0.189,1.921-0.264,3.819,0.238,5.713c0.986,3.717,2.156,7.335,5.063,10.063
				c1.806,1.695,4.503,1.958,6.714,0.779c3.27-1.745,6.355-3.845,9.825-5.206c6.698-2.628,14.931-0.473,20.09,5.353
				c5.208,5.88,6.571,12.679,4.281,20.142c-1.831,5.968-7.353,9.418-13.573,8.876c-4.152-0.362-7.943-1.682-11.578-3.644
				c-7.257-3.917-13.562-8.958-18.455-15.633c-3.885-5.301-5.594-11.247-5.011-17.848
				C172.198,210.03,172.808,207.145,174.337,204.451z M210.924,237.349c-0.271-5.361-2.941-9.688-7.464-12.79
				c-3.269-2.242-8.332,0.195-8.244,3.9c0.157,6.533,3.326,11.481,8.863,14.776c3.066,1.824,5.898,0.302,6.586-3.206
				C210.82,239.243,210.825,238.428,210.924,237.349z"/>
			<path style="fill:#EFC5B4;" d="M289.022,207.651c-0.488-0.718,0.039-1.127,0.273-1.552c1.054-1.917,2.587-3.422,4.249-4.812
				c1.734-1.451,3.533-2.837,5.158-4.402c7.304-7.039,9.213-19.302,0.611-28.282c-0.265-0.277-0.633-0.481-0.504-0.915
				c0.168-0.564,0.684-0.39,1.089-0.426c0.794-0.072,1.48,0.266,2.128,0.639c5.408,3.106,8.334,7.886,9.373,13.937
				c0.797,4.639,0.21,8.997-2.623,12.889c-1.889,2.596-4.477,4.307-7.335,5.648c-3.407,1.599-6.76,3.25-9.559,5.872
				C291.137,206.943,289.978,207.198,289.022,207.651z"/>
			<path style="fill:#EFC5B4;" d="M205.082,207.76c-1.131-0.553-2.267-0.838-3.034-1.532c-2.792-2.527-6.055-4.226-9.426-5.78
				c-5.139-2.369-9.051-5.886-10.081-11.71c-1.271-7.19,1.263-16.023,8.917-20.605c0.928-0.555,1.898-1.038,3.037-0.855
				c0.725,0.117,0.983,0.497,0.427,1.087c-8.111,8.615-7.072,17.195-2.864,24.72c1.789,3.199,4.799,5.188,7.472,7.5
				c1.796,1.553,3.624,3.055,4.866,5.121C204.714,206.234,205.172,206.724,205.082,207.76z"/>
		</g>
		<g>
			<path style="fill:#DB6D39;" d="M246.997,253.144c-1.598-1.558-1.987-3.512-2.823-5.214c-0.851-1.733-1.538-3.545-2.352-5.296
				c-4.221-9.085-10.983-15.838-19.052-21.636c-8.762-6.296-14.369-15.047-16.362-25.628c-2.367-12.567,0.26-24.294,7.994-34.627
				c6.239-8.336,14.688-13.239,24.986-14.43c8.02-0.927,16.071-0.925,23.824,2.142c7.45,2.947,13.297,7.719,17.771,14.365
				c6.051,8.989,8.025,18.948,7.035,29.506c-0.813,8.661-4.767,16.055-10.327,22.669c-2.845,3.385-6.208,6.103-9.9,8.465
				c-3.644,2.33-6.261,5.718-9.131,8.845c-4.075,4.438-6.45,9.847-8.776,15.296C249.097,249.442,248.503,251.416,246.997,253.144z
				 M246.857,229.708c0.236-0.621,0.394-0.907,0.454-1.212c1.527-7.752,5.23-14.323,11.072-19.581
				c4.721-4.25,7.985-9.331,10.176-15.251c2.543-6.871,2.824-13.761,0.404-20.647c-2.027-5.767-5.126-10.799-11.015-13.472
				c-5.097-2.313-10.386-2.797-15.892-1.866c-4.902,0.829-9.193,2.768-12.326,6.67c-5.817,7.248-7.63,15.63-5.735,24.591
				c1.606,7.596,5.151,14.288,11.109,19.566C241.388,214.073,245.293,221.048,246.857,229.708z"/>
			<g>
				<path style="fill:#DB6D39;" d="M274.038,261.009c2.337-0.015,4.049,1.618,4.053,3.866c0.004,2.29-1.773,4.147-4.026,4.208
					c-2.125,0.057-4.028-1.753-4.016-3.818C270.063,262.989,271.906,261.023,274.038,261.009z"/>
				<path style="fill:#DB6D39;" d="M219.82,261.011c2.194-0.004,3.922,1.835,3.951,4.204c0.026,2.205-1.649,3.883-3.861,3.867
					c-2.203-0.016-4.074-1.904-4.111-4.15C215.763,262.751,217.544,261.015,219.82,261.011z"/>
			</g>
		</g>
		<g>
			<path style="fill:#6F342C;" d="M330.123,251.708c-0.898,2.441-2.152,4.719-3.694,6.836c-2.597,3.564-4.973,7.282-7.854,10.649
				c-3.975,4.646-9.081,7.453-14.644,9.673c-3.355,1.339-6.814,2.265-10.288,3.199c-4.408,1.186-8.863,2.345-12.01,6.048
				c-0.335,0.394-0.714,0.514-1.136,0.35c-0.659-0.255-0.371-0.764-0.251-1.227c1.397-5.371,4.481-9.744,8.28-13.629
				c6.785-6.939,15.223-11.103,24.29-14.167c2.896-0.979,5.802-1.925,8.616-3.145c2.541-1.101,4.906-2.433,6.967-4.291
				C328.86,251.589,329.304,250.982,330.123,251.708z"/>
			<path style="fill:#6F342C;" d="M164.104,251.416c0.581-0.219,0.932,0.161,1.283,0.485c3.404,3.148,7.611,4.775,11.892,6.232
				c7.068,2.406,14.089,4.887,20.355,9.097c6.23,4.187,11.386,9.329,14.685,16.16c0.742,1.536,1.455,3.101,1.405,4.866
				c-0.577,0.409-1.04,0.367-1.451-0.126c-3.121-3.741-7.567-4.942-11.982-6.049c-6.119-1.534-12-3.586-17.533-6.66
				c-2.838-1.577-5.159-3.695-7.216-6.122c-4.241-5.003-8.163-10.239-11.145-16.115
				C164.123,252.646,163.634,252.088,164.104,251.416z"/>
		</g>
	</g>
	<g>
		<path style="fill:#D8CBBF;" d="M135.087,186.184c-6.012,0.894-6.736,1.618-7.63,7.63c-0.894-6.012-1.618-6.736-7.63-7.63
			c6.012-0.894,6.736-1.618,7.63-7.63C128.351,184.566,129.076,185.29,135.087,186.184z"/>
		<path style="fill:#D8CBBF;" d="M358.654,320.371c-3.006,0.447-3.368,0.809-3.815,3.815c-0.447-3.006-0.809-3.368-3.815-3.815
			c3.006-0.447,3.368-0.809,3.815-3.815C355.286,319.561,355.648,319.924,358.654,320.371z"/>
	</g>
</g>
</svg>
